<svg width="322" height="334" viewBox="0 0 322 334" fill="none" xmlns="http://www.w3.org/2000/svg">
<g clip-path="url(#clip0_2004_7)">
<rect width="321.333" height="333.333" fill="black"/>
<path d="M11.9996 2.26873C11.9996 3.60206 11.8662 8.66873 11.5996 13.6021C11.3329 21.6021 11.0662 22.6687 8.66622 22.6687C0.799554 22.8021 0.132887 25.8687 -0.000445994 65.3354C-0.133779 96.1354 0.132887 100.669 2.13289 102.802C3.46622 104.269 4.39955 108.002 4.66622 111.869C4.93289 116.935 5.73289 119.202 8.53289 122.002C10.3996 123.869 11.9996 126.269 11.9996 127.335C11.9996 128.269 12.7996 129.335 13.5996 129.602C14.6662 130.002 15.1996 132.402 15.0662 136.269C14.5329 147.602 13.5996 147.335 53.0662 147.335C79.5996 147.335 88.1329 146.935 89.7329 145.602C91.3329 144.269 91.7329 141.735 91.4662 134.935C91.0662 123.469 91.5996 121.469 94.7996 122.269C96.1329 122.669 98.2662 121.869 99.5996 120.535C101.733 118.402 102 115.469 101.733 89.4687C101.6 73.6021 101.333 55.7354 101.333 49.6021C101.333 39.6021 101.066 38.2687 97.9996 35.4687C96.1329 33.7354 94.6662 31.2021 94.6662 29.7354C94.6662 28.4021 93.9996 26.5354 93.1996 25.7354C92.2662 24.8021 91.4662 21.7354 91.1996 18.6687C90.6662 13.2021 88.2662 9.33539 85.4662 9.33539C84.1329 9.33539 83.3329 5.73539 83.8662 1.60206C84.1329 0.402059 76.1329 0.00205937 48.1329 0.00205937C14.7996 0.00205937 12.1329 0.135393 11.9996 2.26873ZM79.9996 14.0021C79.9996 24.2687 80.3996 26.6687 81.9996 26.6687C83.1996 26.6687 83.5996 27.4687 83.1996 28.6687C82.6662 30.0021 83.1996 30.6687 85.1996 30.6687C88.7996 30.6687 88.7996 28.6687 85.1996 26.2687C83.0662 24.6687 82.5329 23.2021 82.9329 18.5354C83.1996 14.4021 83.8662 12.6687 85.3329 12.6687C86.7996 12.6687 87.3329 14.4021 87.3329 19.7354C87.3329 24.4021 87.8662 26.6687 89.0662 26.6687C90.2662 26.6687 90.6662 35.2021 90.6662 64.6687V102.669H85.3329H79.9996V115.335V128.002H47.9996H15.9996V115.335V102.669H10.6662H5.33289V64.6687V26.6687H10.6662H15.9996V14.0021V1.33539H47.9996H79.9996V14.0021ZM98.6662 78.0021V118.669H93.3329H87.9996V131.335V144.002H53.3329H18.6662V137.335C18.6662 131.602 19.0662 130.669 21.1996 130.669C23.1996 130.669 23.9996 131.735 24.2662 134.802L24.6662 138.935L53.3329 138.802H81.9996L82.6662 126.402L83.3329 114.002L87.9996 113.869H92.6662L93.0662 77.2021C93.1996 57.2021 93.5996 39.8687 93.9996 38.9354C94.2662 38.1354 95.4662 37.3354 96.6662 37.3354C98.3996 37.3354 98.6662 42.4021 98.6662 78.0021ZM13.3329 112.002C13.3329 117.735 12.9329 118.669 10.6662 118.669C8.39955 118.669 7.99955 117.735 7.99955 112.002C7.99955 106.269 8.39955 105.335 10.6662 105.335C12.9329 105.335 13.3329 106.269 13.3329 112.002ZM89.5996 108.935C90.1329 110.669 89.4662 111.335 87.0662 111.335C83.4662 111.335 83.0662 110.002 86.3996 108.135C87.5996 107.335 88.7996 106.669 88.7996 106.669C88.9329 106.669 89.3329 107.735 89.5996 108.935ZM79.9996 134.269C79.9996 135.602 73.7329 136.002 53.3329 136.002C37.8662 136.002 26.6662 135.469 26.6662 134.802C26.6662 132.935 29.4662 132.669 55.5996 132.669C74.2662 132.669 79.9996 133.069 79.9996 134.269Z" fill="white"/>
<path d="M26.666 64.668C26.666 97.2013 26.9327 102.668 28.666 102.668C29.866 102.668 30.266 103.468 29.866 104.668C29.3327 106.135 29.866 106.668 31.9993 106.668C34.1327 106.668 34.666 106.135 34.1327 104.668C33.466 102.935 35.9993 102.668 51.3327 102.668H69.3327V64.668V26.668H47.9994H26.666V64.668ZM64.5327 32.668C63.866 34.268 60.9327 34.668 50.5327 34.8013C43.3327 34.9346 36.1327 35.068 34.666 35.068C33.1993 35.2013 31.9993 34.668 31.9993 34.0013C31.9993 33.2013 39.066 32.4013 48.266 32.0013C57.3327 31.6013 64.7994 31.068 64.9327 30.9346C65.066 30.8013 64.9327 31.6013 64.5327 32.668ZM66.3994 40.268C66.7994 42.4013 65.3327 42.668 50.7994 42.668H34.666V72.0013C34.666 100.401 34.5327 101.335 31.9993 101.335C29.466 101.335 29.3327 100.401 29.3327 70.268C29.3327 53.068 29.5993 38.8013 29.9993 38.4013C30.3993 38.0013 38.666 37.7346 48.3994 37.868C63.9994 38.0013 65.9994 38.268 66.3994 40.268ZM63.9994 71.7346C63.866 92.4013 64.266 97.3346 65.5994 96.5346C66.7994 95.868 66.9327 96.0013 65.9994 97.068C64.9327 98.268 50.3994 99.2013 39.5993 98.8013C37.3327 98.668 37.3327 96.9346 37.866 72.268C38.1327 57.868 38.3993 45.868 38.5327 45.7346C38.666 45.6013 44.3993 45.6013 51.466 45.7346L64.266 46.0013L63.9994 71.7346Z" fill="white"/>
<path d="M107.866 2.26926C107.733 3.6026 107.466 31.6026 107.2 64.5359C106.8 120.669 106.933 124.669 109.333 128.936C110.933 131.869 111.6 135.069 111.2 137.736C110.666 140.403 111.2 143.069 112.4 144.669C114.133 146.936 116 147.336 127.733 147.336C136 147.336 141.733 146.669 142.8 145.736C144.4 144.403 144.666 139.469 144.533 119.469C144.266 95.3359 144.266 94.8026 146.8 96.4026C148.133 97.2026 149.333 98.5359 149.333 99.2026C149.333 99.8693 150.266 101.469 151.466 102.803C152.666 104.269 153.733 108.003 154 111.869C154.266 116.936 155.066 119.203 157.866 122.003C159.733 123.869 161.333 126.269 161.333 127.336C161.333 128.269 162.133 129.336 162.933 129.603C164 130.003 164.533 132.403 164.4 136.269C163.866 147.203 164.266 147.336 191.733 147.336C207.866 147.336 216.133 146.803 217.466 145.736C219.066 144.536 219.333 133.469 219.333 78.9359C219.2 20.4026 219.066 13.4693 217.066 11.4693C215.866 10.2693 214.266 9.33593 213.466 9.33593C212.133 9.33593 211.333 5.73593 211.866 1.6026C212 0.402597 208.4 0.00259648 197.466 0.00259648C184.4 0.00259648 182.8 0.269263 182.8 2.26926C182.8 3.6026 182.533 6.13593 182.266 8.0026C181.866 9.86926 181.6 26.5359 181.466 45.0693C181.333 77.0693 181.2 78.6693 179.066 76.5359C177.733 75.3359 176.4 71.4693 176 68.1359C175.466 63.4693 174.666 61.7359 172.4 60.6693C170.133 59.7359 169.333 58.2693 169.333 55.3359C169.333 53.0693 168.4 50.0026 167.333 48.5359C166.266 47.2026 165.333 44.2693 165.333 42.2693C165.333 40.0026 164 37.3359 162 35.4693C160.133 33.7359 158.666 31.2026 158.666 29.7359C158.666 28.4026 158 26.5359 157.2 25.7359C156.266 24.8026 155.466 21.7359 155.2 18.6693C154.666 13.2026 152.266 9.33593 149.466 9.33593C148.133 9.33593 147.333 5.73593 147.866 1.6026C148 0.402597 143.333 0.00259648 128.133 0.00259648C110.133 0.00259648 108.133 0.269263 107.866 2.26926ZM144 14.0026C144 24.2693 144.4 26.6693 146 26.6693C147.2 26.6693 147.6 27.4693 147.2 28.6693C146.666 30.0026 147.2 30.6693 149.2 30.6693C152.8 30.6693 152.8 28.6693 149.2 26.2693C147.066 24.6693 146.533 23.2026 146.933 18.5359C147.2 14.4026 147.866 12.6693 149.333 12.6693C150.8 12.6693 151.333 14.4026 151.333 19.7359C151.333 24.4026 151.866 26.6693 153.066 26.6693C154.266 26.6693 154.666 30.1359 154.666 39.3359C154.666 48.5359 155.066 52.0026 156.4 52.0026C157.466 52.0026 158 49.7359 158 45.0693C158 39.4693 158.533 38.0026 160.4 37.6026C162.266 37.2026 162.666 38.1359 162.666 44.0026C162.666 48.8026 162.266 50.5359 161.066 49.8693C160.133 49.3359 160 49.4693 160.533 50.4026C161.066 51.3359 162.4 52.0026 163.466 52.0026C164.933 52.0026 165.333 54.5359 165.333 64.6693C165.333 74.8026 165.733 77.3359 167.2 77.3359C168.266 77.3359 169.6 76.6693 170.133 75.7359C170.666 74.8026 170.533 74.6693 169.6 75.2026C168.4 75.8693 168 74.4026 168 70.1359C168 63.7359 169.066 62.1359 171.866 64.0026C173.2 64.6693 173.466 66.9359 173.066 71.2026C172.533 75.8693 172.8 77.3359 174.133 77.3359C175.6 77.3359 176 80.1359 176 90.0026C176 100.269 176.4 102.669 178 102.669C179.2 102.669 179.6 103.469 179.2 104.669C178.666 106.136 179.2 106.669 181.333 106.669C183.466 106.669 184 106.136 183.466 104.669C183.066 103.469 183.466 102.669 184.666 102.669C186.4 102.669 186.666 95.7359 186.666 52.0026V1.33593H197.333H208V64.6693V128.003H186.666H165.333V115.336V102.669H160H154.666L154.533 96.9359C154.533 93.8693 154.533 88.1359 154.666 84.2693L154.8 77.3359H149.466H144V64.6693V52.0026H138.666H133.333V90.0026V128.003H122.666H112V64.6693V1.33593H128H144V14.0026ZM215.733 78.4026L216 144.003H192H168V137.336C168 131.603 168.4 130.669 170.533 130.669C172.533 130.669 173.333 131.736 173.6 134.803L174 138.936H192L210 138.803L210.4 77.0693C210.533 43.0693 210.933 14.5359 211.333 13.6026C211.733 12.5359 212.8 12.0026 213.733 12.4026C214.933 12.8026 215.466 27.4693 215.733 78.4026ZM139.6 58.0026C139.6 59.0693 139.066 60.0026 138.4 60.0026C137.066 60.0026 136.933 58.1359 138.266 56.9359C139.466 55.6026 139.6 55.7359 139.6 58.0026ZM141.066 103.736L141.333 144.003H128H114.666V137.336C114.666 131.603 115.066 130.669 117.2 130.669C119.2 130.669 120 131.736 120.266 134.936C120.666 139.203 120.666 139.203 128 139.069L135.333 138.936L135.733 102.536C135.866 82.4026 136.266 65.2026 136.666 64.2693C137.066 63.2026 138.133 62.6693 139.066 62.9359C140.266 63.4693 140.8 73.0693 141.066 103.736ZM152 86.6693C152 92.4026 151.6 93.3359 149.333 93.3359C147.066 93.3359 146.666 92.4026 146.666 86.6693C146.666 80.9359 147.066 80.0026 149.333 80.0026C151.6 80.0026 152 80.9359 152 86.6693ZM183.733 95.0693C184.133 100.669 183.866 101.336 181.466 101.336C179.066 101.336 178.666 100.536 178.666 95.6026C178.666 92.4026 179.066 89.3359 179.6 88.8026C181.733 86.8026 183.333 89.2026 183.733 95.0693ZM162.666 112.003C162.666 117.736 162.266 118.669 160 118.669C157.733 118.669 157.333 117.736 157.333 112.003C157.333 106.269 157.733 105.336 160 105.336C162.266 105.336 162.666 106.269 162.666 112.003ZM133.333 134.003C133.333 135.469 131.866 136.003 128 136.003C119.6 136.003 121.6 132.669 130.4 132.136C132.133 132.003 133.333 132.803 133.333 134.003ZM208 134.269C208 135.603 204 136.003 192 136.003C183.066 136.003 176 135.469 176 134.803C176 133.069 178.933 132.669 194.4 132.669C204.533 132.669 208 133.069 208 134.269Z" fill="white"/>
<path d="M158.267 52.8C156.533 54.5333 157.333 56 160.133 56C161.6 56 162.667 55.3333 162.4 54.4C161.733 52.5333 159.467 51.6 158.267 52.8Z" fill="white"/>
<path d="M168.933 78.1359C167.199 79.8693 167.999 81.3359 170.799 81.3359C172.266 81.3359 173.333 80.6693 173.066 79.7359C172.399 77.8693 170.133 76.9359 168.933 78.1359Z" fill="white"/>
<path d="M225.199 2.26926C225.066 3.6026 224.933 32.0026 224.799 65.3359C224.666 119.736 224.933 126.403 226.933 129.869C228.266 132.136 228.799 135.336 228.399 137.869C227.999 140.403 228.533 143.069 229.733 144.669C231.733 147.203 233.333 147.336 271.733 147.336C302.399 147.336 312.133 146.936 313.599 145.603C315.333 144.269 315.599 141.603 315.333 132.269C315.066 125.869 314.799 119.069 314.799 116.936C314.666 114.403 313.733 112.803 311.333 111.736C308.933 110.669 307.999 109.203 307.999 106.403C307.999 102.003 305.599 98.8026 302.799 99.7359C301.733 100.136 301.333 99.8693 301.733 99.2026C302.133 98.5359 294.399 98.2693 283.999 98.6693C273.866 99.0693 265.866 98.9359 266.266 98.2693C266.533 97.7359 272.133 97.3359 278.666 97.3359C293.866 97.3359 294.133 97.0693 293.866 78.2693C293.866 64.1359 292.533 60.0026 288.533 60.0026C287.466 60.0026 286.666 58.6693 286.666 56.9359C286.666 55.3359 285.733 52.5359 284.533 50.8026C281.333 46.2693 283.599 45.4693 299.333 45.6026C315.733 45.7359 315.733 45.7359 315.333 26.6693C315.066 13.6026 313.599 9.33593 309.466 9.33593C308.133 9.33593 307.333 5.73593 307.866 1.6026C308.133 0.402597 299.066 0.00259648 266.799 0.00259648C228.399 0.00259648 225.466 0.13593 225.199 2.26926ZM303.999 14.0026V26.6693H277.333H250.666V39.3359C250.666 49.6026 251.066 52.0026 252.666 52.0026C253.866 52.0026 254.266 52.8026 253.866 54.0026C253.333 55.3359 253.866 56.0026 255.866 56.0026C259.466 56.0026 259.466 54.4026 255.866 52.2693C253.733 50.8026 253.199 49.4693 253.599 44.2693L253.999 38.0026H280.266H306.533L306.933 25.3359C307.199 15.0693 307.733 12.6693 309.333 12.6693C310.933 12.6693 311.466 15.3359 311.733 27.6026L312.133 42.6693H285.466H258.933L258.399 47.3359L257.866 52.0026H270.266H282.666V64.6693V77.3359H266.666H250.666V90.0026C250.666 100.269 251.066 102.669 252.666 102.669C253.866 102.669 254.266 103.469 253.866 104.669C253.333 106.136 253.866 106.669 255.999 106.669C258.133 106.669 258.666 106.136 258.133 104.669C257.466 102.936 260.533 102.669 280.666 102.669H303.999V115.336V128.003H266.666H229.333V64.6693V1.33593H266.666H303.999V14.0026ZM302.666 33.4693C302.666 34.1359 293.333 34.6693 281.999 34.8026C270.666 34.9359 260.133 35.0693 258.666 35.0693C257.199 35.2026 255.999 34.6693 255.999 34.0026C255.999 32.8026 297.333 30.8026 301.066 31.8693C301.866 32.1359 302.666 32.8026 302.666 33.4693ZM265.999 46.6693C266.399 47.3359 266.266 48.0026 265.466 48.0026C264.799 48.0026 263.733 47.3359 263.333 46.6693C262.933 45.8693 263.066 45.3359 263.866 45.3359C264.533 45.3359 265.599 45.8693 265.999 46.6693ZM290.666 78.8026C290.666 89.4693 290.266 93.3359 289.066 93.4693C288.133 93.4693 280.933 93.4693 273.066 93.3359L258.666 93.2026V97.2026C258.666 100.536 258.133 101.336 255.866 101.336C253.466 101.336 253.199 100.669 253.599 94.9359L253.999 88.6693H269.733H285.333V76.5359C285.333 63.8693 285.733 62.4026 288.799 63.6026C290.266 64.1359 290.666 67.6026 290.666 78.8026ZM282.666 82.2693C282.666 85.7359 276.666 86.5359 256.399 85.4693C255.466 85.3359 254.666 84.5359 254.666 83.6026C254.666 82.4026 258.399 82.0026 268.666 82.0026C276.399 82.0026 282.666 82.1359 282.666 82.2693ZM311.999 128.669V144.003H271.999H231.999V137.336C231.999 131.603 232.399 130.669 234.533 130.669C236.533 130.669 237.333 131.736 237.599 134.803L237.999 138.803H271.999H305.999L306.399 127.736C306.799 114.936 307.199 113.336 309.999 113.336C311.733 113.336 311.999 115.736 311.999 128.669ZM303.999 134.269C303.999 135.603 296.666 136.003 271.999 136.003C253.199 136.003 239.999 135.469 239.999 134.803C239.999 132.803 242.666 132.669 274.266 132.669C297.199 132.669 303.999 133.069 303.999 134.269Z" fill="white"/>
<path d="M4.2659 166.135C1.59923 169.068 1.19923 240.668 3.8659 245.335C4.93256 247.201 5.73256 250.935 5.4659 253.601C5.19923 258.801 9.33256 264.935 11.9992 263.335C12.7992 262.801 13.4659 263.468 13.4659 264.535C13.7326 267.735 13.9992 268.401 15.4659 271.335C16.2659 272.801 16.7992 276.268 16.5326 278.935C16.3992 282.535 17.1992 284.935 19.1992 287.068C24.7992 293.068 26.6659 297.201 26.6659 303.335C26.6659 313.868 27.9992 314.401 55.0659 314.668C72.5326 314.668 78.6659 314.268 79.7326 313.068C80.5326 312.135 81.5992 306.268 82.2659 300.001C83.1992 290.268 83.7326 288.668 85.7326 289.068C90.5326 289.868 92.6659 285.601 92.6659 274.401V264.135L96.6659 263.201C98.7992 262.668 101.333 261.335 102.133 260.268C103.199 258.801 103.599 246.668 103.466 219.201C103.333 179.201 102.933 176.001 97.8659 176.001C96.6659 176.001 95.9992 174.535 95.9992 172.001C95.9992 169.735 95.4659 168.001 94.6659 168.001C93.9992 168.001 93.3326 167.068 93.3326 166.001C93.3326 163.068 71.3326 163.068 68.5326 166.001C66.7992 167.735 66.3992 174.001 66.2659 203.601C65.9992 238.001 65.8659 239.201 63.3326 240.001C55.4659 242.001 55.4659 242.268 54.7992 260.935C54.6659 264.268 53.9992 265.335 52.1326 265.335C50.2659 265.335 49.7326 264.535 50.1326 261.601C50.5326 257.468 47.4659 252.001 44.6659 252.001C42.9326 252.001 41.9992 249.468 42.5326 246.135C42.6659 245.601 42.1326 244.268 41.1992 243.201C40.2659 242.001 39.7326 231.335 39.4659 210.935C39.3326 179.601 38.6659 176.001 33.8659 176.001C32.6659 176.001 31.9992 174.535 31.9992 172.001C31.9992 169.735 31.4659 168.001 30.6659 168.001C29.9992 168.001 29.3326 167.068 29.3326 166.001C29.3326 163.068 6.79923 163.201 4.2659 166.135ZM27.9992 206.001C27.9992 238.135 28.2659 244.001 29.8659 244.001C30.9326 244.001 32.2659 243.335 32.7992 242.401C33.3326 241.468 33.1992 241.335 32.2659 241.868C31.0659 242.535 30.6659 235.068 30.6659 212.668C30.6659 192.935 31.0659 182.801 31.9992 183.335C32.6659 183.735 33.3326 183.468 33.3326 182.801C33.3326 182.001 32.6659 181.335 31.7326 181.335C30.5326 181.335 30.5326 180.935 31.7326 179.735C35.4659 176.001 36.1326 180.935 35.7326 212.401C35.4659 237.068 35.7326 244.001 37.0659 244.001C38.2659 244.001 38.6659 247.335 38.6659 256.001C38.6659 265.335 39.1992 268.535 40.9326 270.668C43.3326 273.468 46.6659 274.268 46.6659 272.001C46.6659 271.201 45.7326 270.668 44.6659 270.668C42.6659 270.668 41.8659 268.401 40.9326 260.401C40.5326 256.135 42.6659 253.735 45.4659 255.468C47.3326 256.535 46.9326 267.735 45.0659 268.401C44.1326 268.801 47.0659 269.201 51.7326 269.201L59.9992 269.335V256.668V244.001H65.3326H70.6659V206.001V168.001H81.3326H91.9992V206.001V244.001H86.6659H81.3326V256.668V269.335H75.9992H70.6659V282.001V294.668H49.3326H27.9992V282.001V269.335H22.6659H17.3326V256.668V244.001H11.9992H6.6659V206.001V168.001H17.3326H27.9992V206.001ZM99.7326 219.735L99.9992 260.001H94.6659H89.3326V272.668V285.335H83.9992H78.6659V298.001V310.668H54.6659H30.6659V304.001C30.6659 298.268 31.0659 297.335 33.1992 297.335C35.1992 297.335 35.9992 298.401 36.2659 301.468L36.6659 305.468H54.6659H72.6659L73.3326 293.068L73.9992 280.668L78.9326 280.935L83.8659 281.201L84.2659 268.268L84.6659 255.335L89.7326 255.468L94.6659 255.601V219.068C94.6659 195.068 95.0659 182.801 95.9992 183.335C96.7992 183.735 97.3326 183.468 97.3326 182.801C97.3326 182.001 96.6659 181.335 95.8659 181.335C95.1992 181.335 94.9326 180.668 95.3326 179.868C95.8659 179.201 96.9326 178.801 97.7326 179.068C98.9326 179.468 99.4659 190.801 99.7326 219.735ZM14.6659 253.335C14.6659 259.068 14.2659 260.001 11.9992 260.001C9.73256 260.001 9.33256 259.068 9.33256 253.335C9.33256 247.601 9.73256 246.668 11.9992 246.668C14.2659 246.668 14.6659 247.601 14.6659 253.335ZM91.1992 250.801C90.1326 252.668 85.3326 252.135 85.3326 250.135C85.3326 248.935 86.3992 248.535 88.6659 249.068C90.5326 249.335 91.5992 250.135 91.1992 250.801ZM25.3326 278.668C25.3326 284.401 24.9326 285.335 22.6659 285.335C20.3992 285.335 19.9992 284.401 19.9992 278.668C19.9992 272.935 20.3992 272.001 22.6659 272.001C24.9326 272.001 25.3326 272.935 25.3326 278.668ZM81.3326 274.268C81.3326 276.535 79.3326 278.268 77.1992 277.735C73.4659 276.668 73.9992 273.601 77.9992 273.868C79.8659 273.868 81.3326 274.135 81.3326 274.268ZM69.9992 302.401C69.7326 302.801 62.7992 303.068 54.6659 303.201C42.3992 303.335 39.9992 302.935 39.9992 301.335C39.9992 299.735 42.2659 299.335 53.3326 299.468C62.2659 299.601 66.6659 299.068 66.6659 298.135C66.6659 297.335 67.5992 297.868 68.6659 299.201C69.7326 300.668 70.3992 302.135 69.9992 302.401Z" fill="white"/>
<path d="M32.3994 244.933C29.7328 245.867 30.3994 248 33.3328 248C34.7994 248 35.9994 247.467 35.9994 246.8C35.9994 245.067 34.3994 244.267 32.3994 244.933Z" fill="white"/>
<path d="M76 284.134C76 284.801 76.6667 285.068 77.3333 284.668C78.1333 284.268 78.6667 283.601 78.6667 283.201C78.6667 282.934 78.1333 282.668 77.3333 282.668C76.6667 282.668 76 283.334 76 284.134Z" fill="white"/>
<path d="M121.733 165.868C120.799 166.935 119.999 172.401 119.733 178.001L119.333 188.268L114.666 189.868C110.666 191.068 109.866 192.135 109.066 196.668C108.266 201.335 108.799 261.201 109.733 266.668C109.999 267.735 110.799 269.868 111.466 271.335C112.266 272.801 112.799 276.268 112.533 278.935C112.399 282.535 113.199 284.935 115.199 287.068C120.799 293.068 122.666 297.201 122.666 303.335C122.666 307.468 123.466 310.135 125.199 311.868C127.599 314.268 129.999 314.535 161.733 314.668C187.866 314.668 195.999 314.401 197.066 313.068C197.866 312.135 198.933 306.268 199.599 300.001C200.533 290.268 201.066 288.668 203.066 289.068C204.266 289.335 206.399 288.401 207.733 287.201C209.733 285.068 209.999 281.068 209.999 245.335C209.999 203.601 209.999 203.335 203.733 201.068C202.266 200.401 201.733 199.201 202.266 197.468C202.666 195.868 202.266 193.735 201.333 192.801C200.533 191.735 199.333 188.001 198.933 184.401C198.266 179.601 197.199 177.735 194.933 176.668C192.933 175.735 191.999 174.268 191.999 171.735C191.999 169.601 191.466 168.001 190.666 168.001C189.999 168.001 189.333 167.068 189.333 166.001C189.333 164.268 184.799 164.001 156.399 164.001C130.133 164.135 123.066 164.535 121.733 165.868ZM187.999 180.668C187.999 190.935 188.399 193.335 189.999 193.335C191.199 193.335 191.599 194.135 191.199 195.335C190.666 196.535 191.199 197.335 192.266 197.335C195.599 197.335 195.999 195.868 193.199 192.935C190.399 189.868 189.599 181.868 192.399 183.468C193.599 184.268 193.599 184.001 192.266 182.401C191.066 180.935 190.933 180.001 191.999 179.335C194.933 177.601 196.266 180.401 195.733 186.801C195.199 191.735 195.466 193.335 196.799 193.335C198.399 193.335 198.666 200.268 198.666 231.335V269.335H193.333H187.999V282.001V294.668H155.999H123.999V282.001V269.335H118.666H113.333V231.335V193.335H118.666H123.999V180.668V168.001H155.999H187.999V180.668ZM206.666 244.668V285.335H201.333H195.999V298.001V310.668H161.333H126.666V304.001C126.666 298.268 127.066 297.335 129.199 297.335C131.199 297.335 131.999 298.401 132.266 301.335L132.666 305.468H161.333H189.999L190.666 293.068L191.333 280.668L196.399 280.935L201.333 281.201V243.468C201.333 222.801 201.733 205.335 202.266 204.935C202.666 204.401 203.866 204.001 204.933 204.001C206.266 204.001 206.666 211.735 206.666 244.668ZM121.333 278.668C121.333 284.401 120.933 285.335 118.666 285.335C116.399 285.335 115.999 284.401 115.999 278.668C115.999 272.935 116.399 272.001 118.666 272.001C120.933 272.001 121.333 272.935 121.333 278.668ZM198.666 274.268C198.666 276.535 196.666 278.268 194.533 277.735C190.799 276.668 191.333 273.601 195.333 273.868C197.199 273.868 198.666 274.135 198.666 274.268ZM187.333 302.401C187.066 302.801 175.333 303.068 161.333 303.201C139.599 303.335 135.999 303.068 135.999 301.335C135.999 299.601 139.466 299.335 159.999 299.468C176.933 299.601 183.999 299.201 183.999 298.135C183.999 297.335 184.933 297.868 185.999 299.201C187.066 300.668 187.733 302.135 187.333 302.401Z" fill="white"/>
<path d="M134.666 230.667C134.666 264 134.933 268.267 136.933 270.667C139.333 273.467 142.666 274.267 142.666 272C142.666 271.2 141.866 270.667 140.799 270.667C139.733 270.667 138.533 269.733 138.133 268.533C137.733 267.333 137.333 252.8 137.333 236C137.333 212.533 137.733 205.467 139.066 204.933C141.733 204 169.866 203.733 172.399 204.8C173.599 205.2 174.666 206.4 174.666 207.467C174.666 208.933 171.466 209.333 158.666 209.333H142.666V238.533C142.666 260.667 142.266 268 141.066 268.4C140.133 268.8 147.866 269.2 158.399 269.2L177.333 269.333V231.333V193.333H155.999H134.666V230.667ZM171.999 199.6C171.999 201.733 170.533 202 155.333 201.6C141.866 201.2 138.666 200.8 138.666 199.2C138.666 197.733 141.733 197.333 155.333 197.333C170.266 197.333 171.999 197.6 171.999 199.6ZM172.266 238.933L171.866 265.333H159.333H146.666L146.399 254.933C146.133 243.6 146.799 214.4 147.333 213.333C147.599 212.933 153.333 212.667 160.266 212.667H172.666L172.266 238.933Z" fill="white"/>
<path d="M193.333 284.134C193.333 284.801 194 285.068 194.666 284.668C195.466 284.268 196 283.601 196 283.201C196 282.934 195.466 282.668 194.666 282.668C194 282.668 193.333 283.334 193.333 284.134Z" fill="white"/>
<path d="M217.6 166.133C215.6 168.4 215.6 193.467 217.6 194.8C218.266 195.2 219.066 198.667 219.333 202.533C219.866 209.067 222.133 214.267 223.733 212.8C224 212.4 225.6 214.667 227.333 217.867C229.333 221.733 230.133 225.067 229.866 228.4C229.466 232 229.866 233.867 231.866 235.467C234.666 237.867 233.733 239.867 229.066 241.733C227.2 242.4 226.666 244.667 226.4 253.6C226 263.2 225.733 264.667 223.333 265.333C216.4 267.2 215.733 268.533 215.066 279.867C214.533 288.4 214.8 291.467 216.533 294C217.733 295.733 218.666 300 218.666 303.333C218.666 312.8 221.066 314.267 236.266 314.533C245.2 314.667 249.333 314.267 250.4 313.067C251.2 312.133 252.266 306.267 252.933 300C253.866 290.267 254.4 288.667 256.4 289.067C260.133 289.733 263.2 285.6 263.2 279.467C263.333 274.667 263.733 273.867 266 274C268.4 274.267 268.666 275.067 268.266 282.533C267.866 288.4 268.4 291.6 269.866 294C271.066 295.733 272 300 272 303.333C272 312.8 274.4 314.267 289.6 314.533C299.866 314.667 302.533 314.4 304 312.533C306.666 309.467 306.666 282.667 304.133 279.6C303.2 278.4 301.866 277.733 301.2 278C299.733 278.933 297.466 274.533 298.266 272.267C298.666 271.333 298.133 269.2 297.066 267.6C296 266 295.333 263.2 295.466 261.333C295.866 257.333 292.666 252 290 252C288.133 252 287.333 249.733 287.866 245.733C288 244.933 287.466 243.867 286.666 243.333C284.133 241.733 285.333 238.667 288.533 238.667C294.133 238.667 295.466 234.933 295.866 218.4C296 214.133 296.533 213.467 299.866 212.667C305.333 211.467 307.2 205.6 306.266 191.2C305.6 180 304 176 300.533 176C299.333 176 298.666 174.533 298.666 172C298.666 169.733 298.133 168 297.333 168C296.666 168 296 167.067 296 166C296 163.2 274 163.067 271.333 165.867C270.133 167.067 269.333 171.467 269.066 178L268.666 188.267L264 189.867C260.133 191.067 259.2 192.133 258.666 195.733C258.266 198.133 257.466 199.867 256.666 199.733C256 199.467 255.6 198.267 255.733 197.067C256 195.733 255.333 193.333 254.533 191.733C253.6 190 252.533 186.267 252.133 183.333C251.6 179.467 250.533 177.6 248.4 176.667C246.266 175.733 245.333 174.267 245.333 171.733C245.333 169.6 244.8 168 244 168C243.333 168 242.666 167.067 242.666 166C242.666 163.067 220.133 163.2 217.6 166.133ZM241.333 180.667C241.333 190.933 241.733 193.333 243.333 193.333C244.533 193.333 244.933 194.133 244.533 195.333C244 196.533 244.533 197.333 245.6 197.333C248.933 197.333 249.333 195.867 246.533 192.933C243.733 189.867 242.933 181.867 245.733 183.467C246.933 184.267 246.933 184 245.6 182.4C244.4 180.933 244.266 180 245.333 179.333C248.266 177.6 249.6 180.4 249.066 186.8C248.533 191.733 248.8 193.333 250.133 193.333C251.6 193.333 252 196.267 252 206C252 215.2 252.4 218.667 253.733 218.667C254.8 218.667 255.2 216.533 254.933 211.467C254.533 205.067 254.666 204.267 256.933 204.533C260.666 205.067 261.066 215.6 257.466 218.267C253.866 220.667 253.866 222.667 257.466 222.667C259.466 222.667 260 222 259.466 220.667C259.066 219.467 259.466 218.667 260.666 218.667C262.266 218.667 262.666 216.267 262.666 206V193.333H268H273.333V180.667V168H284H294.666V180.667V193.333H289.333H284V206V218.667H278.666H273.333V231.333C273.333 243.6 273.466 244 276.4 244.133C278 244.133 278.533 244.533 277.733 244.933C274.933 246 275.733 248 278.8 248C280.8 248 281.333 247.333 280.8 246C280.4 244.8 280.8 244 282 244C283.6 244 284 246.4 284 256C284 265.333 284.533 268.533 286.266 270.667C288.666 273.467 292 274.267 292 272.133C292 271.333 291.333 270.4 290.666 270C289.866 269.467 289.6 268.533 290 267.867C290.4 267.2 290 267.067 288.933 267.467C287.466 268 286.8 266.8 286.4 262.133C286.133 257.733 286.533 255.867 287.866 255.333C291.066 254.133 292.266 256.8 291.866 263.2C291.466 267.467 291.866 269.333 292.933 269.333C294.266 269.333 294.666 272.667 294.666 282V294.667H284H273.333V282V269.333H268H262.666V256.667V244H257.333H252V256.667V269.333H246.666H241.333V282V294.667H230.666H220V282V269.333H225.333H230.666V256.667V244H236H241.333V231.333V218.667H236H230.666V206V193.333H225.333H220V180.667V168H230.666H241.333V180.667ZM302.4 194.4L302.8 209.333H297.333H292V222V234.667H286.666C281.6 234.667 281.333 234.933 281.333 238.667C281.333 241.867 280.8 242.667 278.533 242.667C276.133 242.667 275.866 242 276.266 236.267L276.666 230L281.6 230.267L286.533 230.533L286.933 217.6L287.333 204.667H292H296.666L297.066 193.6C297.333 187.067 298 182.933 298.666 183.333C299.466 183.867 300 183.467 300 182.8C300 182 299.333 181.333 298.533 181.333C297.866 181.333 297.6 180.667 298 179.867C298.533 179.2 299.6 178.8 300.4 179.067C301.466 179.333 302.133 184.667 302.4 194.4ZM228 202.667C228 208.4 227.6 209.333 225.333 209.333C223.066 209.333 222.666 208.4 222.666 202.667C222.666 196.933 223.066 196 225.333 196C227.6 196 228 196.933 228 202.667ZM293.733 201.067C293.2 202.267 292.666 202.533 292.4 201.733C292 200.8 290.933 200.533 289.866 200.933C288.8 201.333 288 201.067 288 200.267C288 199.467 288.8 198.667 289.733 198.267C292.4 197.333 294.533 198.8 293.733 201.067ZM238.666 228C238.666 233.733 238.266 234.667 236 234.667C233.733 234.667 233.333 233.733 233.333 228C233.333 222.267 233.733 221.333 236 221.333C238.266 221.333 238.666 222.267 238.666 228ZM283.6 224.8C283.6 225.733 282.266 226.667 280.666 227.067C278.4 227.467 277.866 227.067 278.266 225.2C278.933 222.533 283.6 222.267 283.6 224.8ZM258.666 252.133C258.666 252.933 258.133 253.067 257.333 252.667C256.666 252.267 256 251.2 256 250.533C256 249.733 256.666 249.6 257.333 250C258.133 250.4 258.666 251.467 258.666 252.133ZM260 270V285.333H254.666H249.333V298V310.667H236H222.666V304C222.666 298.267 223.066 297.333 225.2 297.333C227.2 297.333 228 298.4 228.266 301.467C228.666 305.6 228.8 305.733 236 305.733H243.333L244 293.2L244.666 280.667L249.733 280.933L254.666 281.2V268.8C254.666 256.267 255.066 254.667 258.266 254.667C259.6 254.667 260 258.133 260 270ZM252 274.267C252 276.533 250 278.267 247.866 277.733C244.133 276.667 244.666 273.6 248.666 273.867C250.533 273.867 252 274.133 252 274.267ZM302.4 295.733L302.8 310.667H289.333H276V304C276 298.267 276.4 297.333 278.533 297.333C280.533 297.333 281.333 298.4 281.6 301.467C282 305.6 282.133 305.733 289.333 305.733H296.666L297.066 292.8C297.333 281.333 297.733 279.867 299.733 280.267C301.733 280.667 302 282.8 302.4 295.733ZM240.933 302.267C240.666 302.533 238.533 302.933 236.266 303.2C232.8 303.6 232 303.2 232 301.2C232 299.6 232.8 298.933 234.666 299.333C236.133 299.6 237.333 299.067 237.333 298.267C237.333 297.333 238.266 297.867 239.333 299.2C240.4 300.667 241.066 302 240.933 302.267ZM294.266 302.267C294 302.533 291.866 302.933 289.6 303.2C286.133 303.6 285.333 303.2 285.333 301.2C285.333 299.6 286.133 298.933 288 299.333C289.466 299.6 290.666 299.067 290.666 298.267C290.666 297.333 291.6 297.867 292.666 299.2C293.733 300.667 294.4 302 294.266 302.267Z" fill="white"/>
<path d="M289.333 208.134C289.333 208.801 290 209.068 290.666 208.668C291.466 208.268 292 207.601 292 207.201C292 206.934 291.466 206.668 290.666 206.668C290 206.668 289.333 207.334 289.333 208.134Z" fill="white"/>
<path d="M246.666 284.134C246.666 284.801 247.333 285.068 247.999 284.668C248.799 284.268 249.333 283.601 249.333 283.201C249.333 282.934 248.799 282.668 247.999 282.668C247.333 282.668 246.666 283.334 246.666 284.134Z" fill="white"/>
</g>
<defs>
<clipPath id="clip0_2004_7">
<rect width="321.333" height="333.333" fill="white"/>
</clipPath>
</defs>
</svg>
